<?xml version="1.0" encoding="utf-8"?>
<!-- Generator: Adobe Illustrator 28.0.0, SVG Export Plug-In . SVG Version: 6.00 Build 0)  -->
<svg version="1.1" id="Layer_1" xmlns="http://www.w3.org/2000/svg" xmlns:xlink="http://www.w3.org/1999/xlink" x="0px" y="0px"
	 viewBox="0 0 1428.77 259.4" style="enable-background:new 0 0 1428.77 259.4;" xml:space="preserve">
<style type="text/css">
	.st0{display:none;}
	.st1{display:inline;}
	.st2{fill:#1279BE;}
	.st3{fill:#FBB216;}
	.st4{fill:#FFFFFF;}
	.st5{fill:#FBB315;}
</style>
<g>
	<g>
		<rect x="1215.67" y="20.9" class="st4" width="195.73" height="50.02"/>
		<polygon class="st4" points="1338.55,102.53 1338.55,228.32 1288.53,228.32 1288.53,78.81 		"/>
	</g>
	<g>
		<polygon class="st4" points="428.59,174.5 388.45,179.6 388.27,180.05 375.1,213.41 372.83,219.13 369.76,226.91 356.68,227.14 
			315.62,227.87 320.09,216.53 321.23,213.63 350.77,139.01 351.35,137.57 380.2,68.05 394.42,75.52 388.86,89.87 368.3,142.95 		
			"/>
		<g>
			<polygon class="st4" points="522.49,228.32 497.58,227.87 468.33,227.34 421.54,111.99 398.75,55.82 391.13,37.09 384.57,20.9 
				440.74,20.9 519.63,221.08 			"/>
		</g>
	</g>
	<g>
		<polygon class="st4" points="1024.91,174.5 984.77,179.6 984.6,180.05 971.42,213.41 969.16,219.13 966.08,226.91 953.01,227.14 
			911.94,227.87 916.41,216.53 917.56,213.63 947.1,139.01 947.67,137.57 976.52,68.05 990.74,75.52 985.19,89.87 964.63,142.95 		
			"/>
		<g>
			<polygon class="st4" points="1118.81,228.32 1093.9,227.87 1064.65,227.34 1017.86,111.99 995.07,55.82 987.45,37.09 
				980.89,20.9 1037.06,20.9 1115.96,221.08 			"/>
		</g>
	</g>
	<path class="st4" d="M741.44,124.61v0.01c0,13.36-10.83,24.18-24.19,24.18c-13.36,0-24.19-10.82-24.19-24.18v-0.01
		c0-6.55,2.6-12.47,6.83-16.82c4.4-4.54,10.55-7.36,17.36-7.36c6.81,0,12.96,2.81,17.36,7.36
		C738.84,112.14,741.44,118.06,741.44,124.61z"/>
	<g>
		<path class="st5" d="M801.69,64.78L774.27,92.2c-2.84-5-6.39-9.69-10.65-13.95c-4.26-4.26-8.95-7.81-13.95-10.65l27.42-27.42
			c4.68,3.31,9.13,7.07,13.33,11.27C794.62,55.64,798.38,60.1,801.69,64.78z"/>
		<path class="st5" d="M734.64,61.39c-6.02-1.64-12.22-2.42-18.41-2.32c-5.53,0.09-11.02,0.86-16.37,2.32V22.6
			c5.65-0.98,11.46-1.47,17.39-1.47c5.93,0,11.74,0.5,17.4,1.46L734.64,61.39z"/>
		<path class="st5" d="M819.23,142l-38.74,0.01c1.46-5.34,2.22-10.85,2.31-16.36c0.1-6.19-0.67-12.41-2.32-18.44l38.75,0.01
			c0.97,5.65,1.45,11.46,1.45,17.39C820.68,130.54,820.19,136.34,819.23,142z"/>
		<path class="st5" d="M684.83,67.59c-5.42,3.1-10.35,6.93-14.66,11.38c-3.85,3.97-7.19,8.4-9.94,13.22l-27.43-27.43
			c3.31-4.69,7.06-9.14,11.26-13.33c4.19-4.19,8.66-7.95,13.33-11.27L684.83,67.59z"/>
		<path class="st5" d="M654,107.22c-1.64,6.02-2.42,12.22-2.32,18.41c0.09,5.53,0.86,11.02,2.32,16.37l-38.79,0
			c-0.98-5.65-1.47-11.46-1.47-17.39c0-5.93,0.5-11.74,1.46-17.4L654,107.22z"/>
	</g>
	<path class="st4" d="M816.46,223.32l-5.28-0.31l-58.22-1.63l-10.3,3.57c-8.2,2.1-16.56,3.14-25.41,3.14
		c-7.18,0-14.19-0.73-20.96-2.12c-18.11-3.73-34.48-12.17-47.8-24.02c-0.1-0.1-0.22-0.2-0.33-0.31c-4.18-3.73-8.08-7.83-11.69-12.34
		c-3.71-4.65-6.95-9.48-9.75-14.5l0.04-0.04c-0.67-1.22-1.33-2.47-1.96-3.71l31.24-22.98c2.24,5.81,5.3,11.28,9.05,16.19
		c3.34,4.4,7.2,8.36,11.54,11.83c0.69,0.55,1.37,1.08,2.1,1.61c10.81,7.85,24.12,12.5,38.5,12.5c15.54,0,29.81-5.4,41.05-14.44
		l-0.02-0.02c4.85-3.92,9.14-8.46,12.66-13.56c3.16-4.53,5.77-9.42,7.73-14.62l0.04,0.04l31.38,22.7
		c-2.53,5.14-5.53,10.14-9.01,14.95c-1.26,1.75-2.57,3.47-3.94,5.12c-0.08,0.1-0.16,0.2-0.24,0.31c-0.37,0.45-0.75,0.9-1.14,1.35
		c-1.94,2.26-3.96,4.4-6.06,6.46c-0.08,0.08-0.16,0.18-0.27,0.27L816.46,223.32z"/>
	<g>
		<rect x="23.03" y="20.9" class="st4" width="195.73" height="50.02"/>
		<polygon class="st4" points="145.9,102.53 145.9,228.32 95.88,228.32 95.88,78.81 		"/>
	</g>
</g>
</svg>
