<?xml version="1.0" encoding="UTF-8"?>
<svg id="Layer_1" data-name="Layer 1" xmlns="http://www.w3.org/2000/svg" viewBox="0 0 117 44">
  <defs>
    <style>
      .cls-1 {
        fill: #1279be;
      }

      .cls-1, .cls-2 {
        stroke-width: 0px;
      }

      .cls-2 {
        fill: #fbb216;
      }
    </style>
  </defs>
  <g>
    <rect class="cls-1" x="100.08" y="14.85" width="16.33" height="4.17"/>
    <polygon class="cls-1" points="110.33 21.66 110.33 32.15 106.15 32.15 106.15 19.68 110.33 21.66"/>
  </g>
  <g>
    <polygon class="cls-1" points="34.43 27.66 31.08 28.09 31.06 28.12 29.96 30.91 29.78 31.38 29.52 32.03 28.43 32.05 25 32.11 25.38 31.17 25.47 30.93 27.94 24.7 27.98 24.58 30.39 18.78 31.58 19.41 31.11 20.6 29.4 25.03 34.43 27.66"/>
    <polygon class="cls-1" points="42.26 32.15 40.18 32.11 37.74 32.07 33.84 22.45 31.94 17.76 31.3 16.2 30.75 14.85 35.44 14.85 42.02 31.55 42.26 32.15"/>
  </g>
  <g>
    <polygon class="cls-1" points="84.16 27.66 80.82 28.09 80.8 28.12 79.7 30.91 79.51 31.38 79.26 32.03 78.17 32.05 74.74 32.11 75.12 31.17 75.21 30.93 77.67 24.7 77.72 24.58 80.13 18.78 81.31 19.41 80.85 20.6 79.14 25.03 84.16 27.66"/>
    <polygon class="cls-1" points="92 32.15 89.92 32.11 87.48 32.07 83.58 22.45 81.68 17.76 81.04 16.2 80.49 14.85 85.18 14.85 91.76 31.55 92 32.15"/>
  </g>
  <g>
    <path class="cls-1" d="m60.52,23.5h0c0,1.11-.9,2.02-2.02,2.02s-2.02-.9-2.02-2.02h0c0-.55.22-1.04.57-1.4.37-.38.88-.61,1.45-.61s1.08.23,1.45.61c.35.36.57.86.57,1.4Z"/>
    <g>
      <path class="cls-2" d="m65.55,18.51l-2.29,2.29c-.24-.42-.53-.81-.89-1.16s-.75-.65-1.16-.89l2.29-2.29c.39.28.76.59,1.11.94s.66.72.94,1.11Z"/>
      <path class="cls-2" d="m59.95,18.23c-.5-.14-1.02-.2-1.54-.19-.46,0-.92.07-1.37.19v-3.24c.47-.08.96-.12,1.45-.12.49,0,.98.04,1.45.12v3.24Z"/>
      <path class="cls-2" d="m67.01,24.95h-3.23c.12-.45.19-.9.19-1.36,0-.52-.06-1.04-.19-1.54h3.23c.08.47.12.96.12,1.45s-.04.98-.12,1.45Z"/>
      <path class="cls-2" d="m55.8,18.74c-.45.26-.86.58-1.22.95-.32.33-.6.7-.83,1.1l-2.29-2.29c.28-.39.59-.76.94-1.11.35-.35.72-.66,1.11-.94l2.29,2.29Z"/>
      <path class="cls-2" d="m53.23,22.05c-.14.5-.2,1.02-.19,1.54,0,.46.07.92.19,1.37h-3.24c-.08-.47-.12-.96-.12-1.45,0-.49.04-.98.12-1.45h3.24Z"/>
    </g>
    <path class="cls-1" d="m66.78,31.73l-.44-.03-4.86-.14-.86.3c-.68.18-1.38.26-2.12.26-.6,0-1.18-.06-1.75-.18-1.51-.31-2.88-1.02-3.99-2,0,0-.02-.02-.03-.03-.35-.31-.67-.65-.97-1.03-.31-.39-.58-.79-.81-1.21h0c-.06-.11-.11-.21-.16-.31l2.61-1.92c.19.48.44.94.76,1.35.28.37.6.7.96.99.06.05.11.09.18.13.9.65,2.01,1.04,3.21,1.04,1.3,0,2.49-.45,3.42-1.2h0c.4-.33.76-.71,1.06-1.13.26-.38.48-.79.64-1.22h0s2.62,1.9,2.62,1.9c-.21.43-.46.85-.75,1.25-.11.15-.21.29-.33.43,0,0-.01.02-.02.03-.03.04-.06.07-.1.11-.16.19-.33.37-.51.54,0,0-.01.02-.02.02l2.25,2.05Z"/>
  </g>
  <g>
    <rect class="cls-1" x=".6" y="14.85" width="16.33" height="4.17"/>
    <polygon class="cls-1" points="10.85 21.66 10.85 32.15 6.67 32.15 6.67 19.68 10.85 21.66"/>
  </g>
</svg>